<svg width="47" height="46" viewBox="0 0 47 46" fill="none" xmlns="http://www.w3.org/2000/svg">
<path d="M38.8015 15.1922C38.8259 15.5327 38.8259 15.8733 38.8259 16.2138C38.8259 26.5998 30.9208 38.5669 16.4728 38.5669C12.0216 38.5669 7.88669 37.2777 4.40845 35.04C5.04087 35.113 5.6489 35.1373 6.30566 35.1373C9.97841 35.1373 13.3594 33.8968 16.0593 31.7807C12.6054 31.7077 9.7109 29.4457 8.71363 26.3323C9.20013 26.4052 9.68656 26.4539 10.1974 26.4539C10.9028 26.4539 11.6082 26.3565 12.2649 26.1863C8.66504 25.4566 5.96507 22.2946 5.96507 18.4758V18.3786C7.01093 18.9624 8.2272 19.3272 9.51623 19.3758C7.40011 17.965 6.01374 15.557 6.01374 12.8328C6.01374 11.3734 6.40284 10.0357 7.08393 8.86814C10.9513 13.6355 16.7646 16.7488 23.2832 17.0894C23.1616 16.5056 23.0886 15.8976 23.0886 15.2895C23.0886 10.9599 26.5912 7.43311 30.945 7.43311C33.2071 7.43311 35.2502 8.38171 36.6853 9.91408C38.4609 9.57357 40.1635 8.91681 41.6716 8.01687C41.0878 9.84115 39.8473 11.3735 38.2177 12.3464C39.7987 12.1762 41.3311 11.7383 42.7418 11.1303C41.6717 12.6869 40.3339 14.0733 38.8015 15.1922Z" fill="white"/>
</svg>
